# xmcd
#
# Track frame offsets:
#	150
#	17178
#	32380
#	49228
#	66058
#	80656
#	97464
#	110742
#	127354
#	143699
#	163931
#	183261
#	199204
#	211134
#	228429
#
# Disc length: 3318 seconds
#
# Revision: 1
# Processed by: cddbd v1.5.2PL0 Copyright (c) Steve Scherf et al.
# Submitted via: audiograbber 1.83.01
#
DISCID=e00cf40f
DTITLE=Toby Keith - SC8810
DYEAR=1900
DGENRE=Country
TTITLE0=Toby Keith - How Do You Like Me Now
TTITLE1=Toby Keith - He Ain't Worth Missing
TTITLE2=Toby Keith - Getcha Some
TTITLE3=Toby Keith - Me Too
TTITLE4=Toby Keith - I Wanna Talk About Me
TTITLE5=Toby Keith - Wish I Didn't Know Now
TTITLE6=Toby Keith - I'm Just Talking  About Tonight
TTITLE7=Toby Keith - Courtesy Of The Red, White and Blue
TTITLE8=Toby Keith - Should've Been A Cowboy
TTITLE9=Toby Keith - Who's Your Daddy
TTITLE10=Toby Keith - We Were In Love
TTITLE11=Toby Keith - My List
TTITLE12=Toby Keith - You Ain't Much Fun
TTITLE13=Toby Keith - You Should'nt Kiss Me Like This
TTITLE14=Toby Keith - A Little Less Talk and A Lot More Action
EXTD=
EXTT0=
EXTT1=
EXTT2=
EXTT3=
EXTT4=
EXTT5=
EXTT6=
EXTT7=
EXTT8=
EXTT9=
EXTT10=
EXTT11=
EXTT12=
EXTT13=
EXTT14=
PLAYORDER=
